<svg xmlns="http://www.w3.org/2000/svg" version="1.1" xmlns:xlink="http://www.w3.org/1999/xlink" width="512" height="512" x="0" y="0" viewBox="0 0 64 64" style="enable-background:new 0 0 512 512" xml:space="preserve" class=""><g><path d="M26.36 23.25h11.28a1 1 0 0 0 1-1v-1.79a6.635 6.635 0 0 0-3.58-5.89 4.386 4.386 0 0 0 1.37-3.18 4.43 4.43 0 1 0-8.86 0 4.386 4.386 0 0 0 1.37 3.18 6.635 6.635 0 0 0-3.58 5.89v1.79a1 1 0 0 0 1 1ZM32 8.95a2.435 2.435 0 1 1-2.43 2.44A2.435 2.435 0 0 1 32 8.95Zm-4.64 11.51a4.64 4.64 0 0 1 9.28 0v.79h-9.28ZM21.986 27.089h20.028a1 1 0 1 0 0-2H21.986a1 1 0 0 0 0 2ZM24.385 28.35a1 1 0 1 0 0 2h15.23a1 1 0 0 0 0-2ZM43.023 31.61H20.977a1 1 0 0 0 0 2h22.046a1 1 0 1 0 0-2ZM36.145 34.871h-8.29a1 1 0 1 0 0 2h8.29a1 1 0 0 0 0-2Z" fill="#1F4B3F" opacity="1" data-original="#000000" class=""></path><path d="M56.12 11.3h-8.84V3a1 1 0 0 0-1-1H17.72a1 1 0 0 0-1 1v8.3H7.88a3.026 3.026 0 0 0-3.02 3.03v33.98a3.017 3.017 0 0 0 3.02 3.02h16.84v3.76h-5.93a1 1 0 0 0-1 1V61a1 1 0 0 0 1 1h26.42a1 1 0 0 0 1-1v-4.91a1 1 0 0 0-1-1h-5.93v-3.76h16.84a3.017 3.017 0 0 0 3.02-3.02V14.33a3.026 3.026 0 0 0-3.02-3.03ZM18.72 4h26.56v35.83H18.72Zm18.56 47.33v3.76H26.72v-3.76ZM9.33 46.91a.994.994 0 0 1 .3-.7.639.639 0 0 1 .15-.13c.05-.03.11-.06.17-.09s.13-.04.19-.06a1.275 1.275 0 0 1 .39 0c.06.02.13.04.19.06s.12.06.17.09a.934.934 0 0 1 .15.13.978.978 0 0 1 0 1.41.875.875 0 0 1-.32.22 1.006 1.006 0 0 1-.39.08 1 1 0 0 1-.38-.08.875.875 0 0 1-.32-.22 1 1 0 0 1-.3-.71Zm4.02 0a.967.967 0 0 1 .29-.7.875.875 0 0 1 .32-.22 1.017 1.017 0 0 1 1.09.22.976.976 0 0 1 .3.7 1 1 0 0 1-.3.71.875.875 0 0 1-.32.22 1 1 0 0 1-.38.08 1.046 1.046 0 0 1-.39-.08.875.875 0 0 1-.32-.22.99.99 0 0 1-.29-.71Zm5.72.71a1.03 1.03 0 0 1-1.09.22 1.19 1.19 0 0 1-.33-.22.99.99 0 0 1-.29-.71 1.009 1.009 0 0 1 .29-.7 1.043 1.043 0 0 1 .91-.28l.18.06.18.09a1.738 1.738 0 0 1 .15.13 1.009 1.009 0 0 1 .29.7.99.99 0 0 1-.29.71Zm25.14 9.47V60H19.79v-2.91Zm12.93-14.3H6.86V14.33a1.026 1.026 0 0 1 1.02-1.03h8.84v27.53a1 1 0 0 0 1 1h28.56a1 1 0 0 0 1-1V13.3h8.84a1.026 1.026 0 0 1 1.02 1.03Z" fill="#1F4B3F" opacity="1" data-original="#000000" class=""></path></g></svg>