<svg xmlns="http://www.w3.org/2000/svg" version="1.1" xmlns:xlink="http://www.w3.org/1999/xlink" width="512" height="512" x="0" y="0" viewBox="0 0 512 512" style="enable-background:new 0 0 512 512" xml:space="preserve" class=""><g><path d="M502 411.674h-10.082V157.932c0-26.182-21.301-47.482-47.482-47.482h-2.722V57.191C441.714 25.656 416.058 0 384.522 0H127.477C95.942 0 70.286 25.656 70.286 57.191v53.258h-2.722c-26.182 0-47.483 21.301-47.483 47.482v253.742H10c-5.523 0-10 4.478-10 10C0 471.479 40.521 512 90.327 512h331.347C471.479 512 512 471.479 512 421.674c0-5.523-4.477-10-10-10zm-60.286-281.225h2.722c15.154 0 27.482 12.328 27.482 27.482v2.721h-30.204zM90.286 57.191C90.286 36.684 106.97 20 127.477 20h257.045c20.508 0 37.192 16.684 37.192 37.191v267.086c0 20.508-16.684 37.191-37.192 37.191H127.477c-20.508 0-37.192-16.684-37.192-37.191V57.191zM40.082 157.932c0-15.154 12.329-27.482 27.483-27.482h2.722v30.203H40.082zm0 22.72h30.204v143.625c0 31.535 25.656 57.191 57.192 57.191h257.045c31.536 0 57.192-25.656 57.192-57.191V180.652h30.204v231.021H321.265c-5.523 0-10 4.478-10 10v20.122h-110.53v-20.122c0-5.522-4.477-10-10-10H40.082zM421.673 492H90.327c-35.384 0-64.749-26.267-69.618-60.326h160.026v20.122c0 5.522 4.477 10 10 10h130.53c5.523 0 10-4.478 10-10v-20.122h160.026C486.422 465.733 457.058 492 421.673 492z" fill="#1F4B3F" opacity="1" data-original="#000000" class=""></path><path d="M150.571 281.06h210.857c5.523 0 10-4.477 10-10 0-5.522-4.477-10-10-10H150.571c-5.523 0-10 4.478-10 10 0 5.523 4.477 10 10 10zM301.184 311.266h-90.367c-5.523 0-10 4.478-10 10s4.477 10 10 10h90.367c5.523 0 10-4.478 10-10 0-5.523-4.478-10-10-10zM256 230.857c52.571 0 95.347-42.783 95.347-95.348 0-52.574-42.772-95.347-95.347-95.347s-95.347 42.772-95.347 95.347c0 52.58 42.79 95.348 95.347 95.348zm35.184-28.748c-21.561 11.438-47.943 11.895-70.367 0v-6.355c0-19.4 15.783-35.184 35.184-35.184 19.445 0 35.184 15.735 35.184 35.184v6.355zm-55.307-81.66c0-11.096 9.027-20.123 20.123-20.123s20.123 9.027 20.123 20.123-9.027 20.122-20.123 20.122-20.123-9.026-20.123-20.122zM256 60.163c41.546 0 75.347 33.801 75.347 75.347 0 20.097-7.924 38.365-20.792 51.889-2.513-16.645-12.408-30.613-25.95-38.852 7.117-7.244 11.518-17.165 11.518-28.098 0-22.124-17.999-40.123-40.123-40.123s-40.123 17.999-40.123 40.123c0 10.943 4.409 20.872 11.537 28.118-13.669 8.312-23.459 22.392-25.966 38.835-12.87-13.523-20.795-31.794-20.795-51.893 0-41.545 33.801-75.346 75.347-75.346z" fill="#1F4B3F" opacity="1" data-original="#000000" class=""></path></g></svg>