<svg xmlns="http://www.w3.org/2000/svg" version="1.1" xmlns:xlink="http://www.w3.org/1999/xlink" width="512" height="512" x="0" y="0" viewBox="0 0 450 450" style="enable-background:new 0 0 512 512" xml:space="preserve" class=""><g><path d="M324.14 445.78H71.87C46.58 445.78 26 425.2 26 399.91V51.57C26 26.28 46.58 5.7 71.87 5.7h216.99c2.76 0 5 2.24 5 5s-2.24 5-5 5H71.87C52.09 15.7 36 31.79 36 51.57v348.35c0 19.78 16.09 35.86 35.87 35.86h252.28c19.78 0 35.86-16.09 35.86-35.86v-1.26c0-2.76 2.24-5 5-5s5 2.24 5 5v1.26c0 25.28-20.58 45.86-45.87 45.86zm40.87-215.32c-2.76 0-5-2.24-5-5V86.85c0-2.76 2.24-5 5-5s5 2.24 5 5v138.61c0 2.77-2.24 5-5 5z" fill="#1F4B3F" opacity="1" data-original="#000000" class=""></path><path d="M365.01 91.85h-56.04c-13.85 0-25.11-11.26-25.11-25.11V10.7a5 5 0 0 1 3.09-4.62 5.01 5.01 0 0 1 5.45 1.08l76.15 76.15a4.989 4.989 0 0 1 1.08 5.45 5 5 0 0 1-4.62 3.09zm-71.15-69.08v43.97c0 8.33 6.78 15.11 15.11 15.11h43.97zM246.37 91.85H75.5c-2.76 0-5-2.24-5-5V53.02c0-2.76 2.24-5 5-5h170.87c2.76 0 5 2.24 5 5v33.83c0 2.76-2.23 5-5 5zm-165.87-10h160.87V58.02H80.5zM320.51 142.23H145.82c-2.76 0-5-2.24-5-5s2.24-5 5-5h174.69c2.76 0 5 2.24 5 5s-2.24 5-5 5zM320.51 192.86H145.82c-2.76 0-5-2.24-5-5s2.24-5 5-5h174.69c2.76 0 5 2.24 5 5s-2.24 5-5 5zM261.84 243.5H145.82c-2.76 0-5-2.24-5-5s2.24-5 5-5h116.02c2.76 0 5 2.24 5 5s-2.24 5-5 5zM230.28 294.14h-84.46c-2.76 0-5-2.24-5-5s2.24-5 5-5h84.46c2.76 0 5 2.24 5 5s-2.24 5-5 5zM231.59 344.77h-85.77c-2.76 0-5-2.24-5-5s2.24-5 5-5h85.77c2.76 0 5 2.24 5 5s-2.24 5-5 5z" fill="#1F4B3F" opacity="1" data-original="#000000" class=""></path><path d="M323.52 413.06c-21.06 0-41.25-6.42-58.37-18.57l-.29-.21c-26.51-18.95-42.34-49.69-42.34-82.23 0-55.69 45.31-101 101-101s101 45.31 101 101-45.31 101.01-101 101.01zm0-192c-50.18 0-91 40.82-91 91 0 29.32 14.26 57.01 38.15 74.09l.27.2c15.41 10.93 33.6 16.72 52.58 16.72 50.18 0 91-40.82 91-91s-40.82-91.01-91-91.01z" fill="#1F4B3F" opacity="1" data-original="#000000" class=""></path><path d="M268.04 395.41H145.82c-2.76 0-5-2.24-5-5s2.24-5 5-5h122.22c2.76 0 5 2.24 5 5s-2.24 5-5 5zM86.63 156.46c-1.33 0-2.6-.53-3.54-1.46l-11.13-11.13c-1.95-1.95-1.95-5.12 0-7.07s5.12-1.95 7.07 0l7.6 7.6 24.93-24.93c1.95-1.95 5.12-1.95 7.07 0s1.95 5.12 0 7.07l-28.47 28.47c-.93.92-2.2 1.45-3.53 1.45zM86.63 207.1c-1.28 0-2.56-.49-3.54-1.46L71.96 194.5c-1.95-1.95-1.95-5.12 0-7.07s5.12-1.95 7.07 0l7.6 7.6 24.93-24.93c1.95-1.95 5.12-1.95 7.07 0s1.95 5.12 0 7.07l-28.47 28.47c-.97.97-2.25 1.46-3.53 1.46zM86.63 257.73c-1.33 0-2.6-.53-3.54-1.46l-11.13-11.13c-1.95-1.95-1.95-5.12 0-7.07s5.12-1.95 7.07 0l7.6 7.6 24.93-24.93c1.95-1.95 5.12-1.95 7.07 0s1.95 5.12 0 7.07l-28.47 28.47c-.93.93-2.2 1.45-3.53 1.45zM86.63 359.01c-1.33 0-2.6-.53-3.54-1.46l-11.13-11.13c-1.95-1.95-1.95-5.12 0-7.07s5.12-1.95 7.07 0l7.6 7.6L111.56 322c1.95-1.95 5.12-1.95 7.07 0s1.95 5.12 0 7.07l-28.47 28.47c-.93.94-2.2 1.47-3.53 1.47zM86.63 409.65c-1.33 0-2.6-.53-3.54-1.46l-11.13-11.13c-1.95-1.95-1.95-5.12 0-7.07s5.12-1.95 7.07 0l7.6 7.6 24.93-24.93c1.95-1.95 5.12-1.95 7.07 0s1.95 5.12 0 7.07L90.16 408.2c-.93.92-2.2 1.45-3.53 1.45zM86.63 308.37c-1.28 0-2.56-.49-3.54-1.46l-11.13-11.13c-1.95-1.95-1.95-5.12 0-7.07s5.12-1.95 7.07 0l7.6 7.59 24.93-24.93c1.95-1.95 5.12-1.95 7.07 0s1.95 5.12 0 7.07L90.17 306.9a4.99 4.99 0 0 1-3.54 1.47zM300.93 365.4c-1.28 0-2.56-.49-3.54-1.46l-35.21-35.21c-.94-.94-1.46-2.21-1.46-3.54s.53-2.6 1.46-3.54l16.28-16.28a5.003 5.003 0 0 1 7.07 0l15.39 15.39 60.57-60.57c.94-.94 2.21-1.46 3.54-1.46s2.6.53 3.54 1.46l16.28 16.28a5.003 5.003 0 0 1 0 7.07l-80.39 80.39a4.95 4.95 0 0 1-3.53 1.47zm-28.14-40.22 28.14 28.14L374.25 280l-9.21-9.21-60.57 60.57a5.003 5.003 0 0 1-7.07 0L282 315.97z" fill="#1F4B3F" opacity="1" data-original="#000000" class=""></path></g></svg>