<svg xmlns="http://www.w3.org/2000/svg" version="1.1" xmlns:xlink="http://www.w3.org/1999/xlink" width="512" height="512" x="0" y="0" viewBox="0 0 64 64" style="enable-background:new 0 0 512 512" xml:space="preserve" class=""><g><path d="M59 25H33a3.003 3.003 0 0 0-3 3v19a3.003 3.003 0 0 0 3 3h9.5v1.232A5.012 5.012 0 0 0 39 56a3.003 3.003 0 0 0-3-3h-3.116a4.765 4.765 0 0 0-4.065-3.768c-.917-5.837-3.6-9.308-7.819-10.1v-.973c9.785-4.4 6.87-18.989-4-19.159-10.872.171-13.784 14.76-4 19.16v1.126c-6.864 1.52-9.5 8.723-8.154 16.73A2.995 2.995 0 0 0 5 62h54a3 3 0 0 0 0-6h-6a5.012 5.012 0 0 0-3.5-4.768V50H59a3.003 3.003 0 0 0 3-3V28a3.003 3.003 0 0 0-3-3ZM37 56H25a1.001 1.001 0 0 1 1-1h10a1.001 1.001 0 0 1 1 1ZM9 29a8.01 8.01 0 0 1 8-8c10.613.44 10.61 15.562 0 16a8.01 8.01 0 0 1-8-8Zm10 10v1a2 2 0 0 1-4 0v-1ZM8.5 44.503a8.343 8.343 0 0 1 4.732-3.212 3.986 3.986 0 0 0 7.582-.149c3.129.684 5.126 3.327 5.947 7.88a22.865 22.865 0 0 0-3.761.24V48a1 1 0 0 0-2 0v1.603a51.4 51.4 0 0 0-6.115 1.654 12.392 12.392 0 0 0-.99-3.704 1 1 0 0 0-1.791.891 10.921 10.921 0 0 1 .843 3.504 1.022 1.022 0 1 0 .424 1.98c-.714.302 15.323-6.133 17.444-.928H26a3.003 3.003 0 0 0-3 3H6.849c-.767-5.021-.213-8.887 1.651-11.497ZM59 58a1 1 0 0 1 0 2H5a1 1 0 0 1 0-2Zm-8-2H41a3 3 0 0 1 1.752-2.716 3.506 3.506 0 0 0 6.496 0A3 3 0 0 1 51 56Zm-3.5-4a1.5 1.5 0 0 1-3 0v-2h3ZM60 47a1.001 1.001 0 0 1-1 1H33a1.001 1.001 0 0 1-1-1V28a1.001 1.001 0 0 1 1-1h26a1.001 1.001 0 0 1 1 1Z" fill="#1F4B3F" opacity="1" data-original="#000000"></path><path d="M52.175 34.767c-.815-.282-1.449.654-2.318.528a2.574 2.574 0 0 1-2.571-2.571c.167-.85-.012-1.713-1.061-1.66A6.01 6.01 0 0 0 41 37.01c.281 7.94 11.72 7.94 12 0-.062-.744.013-1.897-.825-2.243ZM47 41.01a4.006 4.006 0 0 1-1.668-7.632 4.595 4.595 0 0 0 5.666 3.772A4.005 4.005 0 0 1 47 41.01ZM29 19.315V21a2.002 2.002 0 0 0 2 2h2a2.002 2.002 0 0 0 2-2v-1.685a6.995 6.995 0 1 0-6 0ZM33 20l.001 1H31v-1ZM32 8a4.996 4.996 0 0 1 .848 9.914c-.07-.974.06-2.496 1.468-2.966A1.003 1.003 0 0 0 34 13h-3a1 1 0 0 0 0 2h.39a5.865 5.865 0 0 0-.55 2.85A4.998 4.998 0 0 1 32 8ZM32 5a1 1 0 0 0 1-1V3a1 1 0 0 0-2 0v1a1 1 0 0 0 1 1ZM36 6.072a1.002 1.002 0 0 0 1.366-.366l.5-.866a1 1 0 1 0-1.732-1l-.5.866A1 1 0 0 0 36 6.072ZM26.634 5.706a1 1 0 0 0 1.732-1l-.5-.866a1 1 0 0 0-1.732 1Z" fill="#1F4B3F" opacity="1" data-original="#000000"></path></g></svg>