<?xml version="1.0" encoding="utf-8"?>
<!-- Generator: Adobe Illustrator 24.2.3, SVG Export Plug-In . SVG Version: 6.00 Build 0)  -->
<svg version="1.1" id="Layer_1" xmlns="http://www.w3.org/2000/svg" xmlns:xlink="http://www.w3.org/1999/xlink" x="0px" y="0px"
	 viewBox="0 0 490.9 485.1" style="enable-background:new 0 0 490.9 485.1;" xml:space="preserve">
<style type="text/css">
	.st0{fill:#1F4B3F;}
</style>
<path class="st0" d="M362.5,26.8c34.1,66.8,51.7,140.8,51.6,215.8c0.1,75-17.6,149-51.6,215.8c119.2-64.7,163.3-213.8,98.6-333
	C438.4,83.6,404.2,49.4,362.5,26.8L362.5,26.8z M252.2,21.6c-11.1-15.8-30-24.2-49-20.9C87.8,20.8,0,121.4,0,242.5
	s87.8,221.8,203.2,241.8c19,3.3,37.9-5.2,49-20.9c45.7-64.6,70.1-141.8,70-220.9C322.3,163.4,297.8,86.2,252.2,21.6L252.2,21.6z"/>
</svg>
