<svg id="Layer_1" data-name="Layer 1" xmlns="http://www.w3.org/2000/svg" viewBox="0 0 490.87 485.06"><defs><style>.cls-1{fill:#007bff;}</style></defs><path class="cls-1" d="M367.1,34.25A473.52,473.52,0,0,1,418.73,250a473.53,473.53,0,0,1-51.65,215.77,245.54,245.54,0,0,0,0-431.53ZM256.74,29.11c-11.13-15.75-30-24.22-49-20.94C92.33,28.22,4.57,128.87,4.57,250S92.33,471.79,207.75,491.83c19,3.28,37.89-5.19,49-20.91a381.82,381.82,0,0,0,70-220.91,381.68,381.68,0,0,0-70-220.9Z" transform="translate(-4.57 -7.47)"/></svg>