<?xml version="1.0" encoding="utf-8"?>
<!-- Generator: Adobe Illustrator 24.2.3, SVG Export Plug-In . SVG Version: 6.00 Build 0)  -->
<svg version="1.1" id="Layer_1" xmlns="http://www.w3.org/2000/svg" xmlns:xlink="http://www.w3.org/1999/xlink" x="0px" y="0px"
	 viewBox="0 0 693 543" style="enable-background:new 0 0 693 543;" xml:space="preserve">
<style type="text/css">
	.st0{fill:url(#SVGID_1_);}
	.st1{fill:url(#SVGID_2_);}
	.st2{fill:url(#SVGID_3_);}
	.st3{fill:url(#SVGID_4_);}
	.st4{fill:url(#SVGID_5_);}
	.st5{fill:url(#SVGID_6_);}
	.st6{fill:url(#SVGID_7_);}
	.st7{fill:#85EF47;}
	.st8{fill:#00BD56;}
	.st9{fill:#FFFFFF;}
	.st10{fill:#5893D4;}
	.st11{fill:#1F3C88;}
	.st12{fill:#FFD700;}
	.st13{fill:#C6A000;}
	.st14{fill:url(#SVGID_8_);}
	.st15{fill:url(#SVGID_9_);}
	.st16{fill:#080957;}
	.st17{fill:#8AACFF;}
	.st18{fill:#461B93;}
	.st19{fill:#8253D7;}
	.st20{fill:url(#SVGID_10_);}
	.st21{fill:#A393EB;}
	.st22{fill:#5E63B6;}
	.st23{fill:#FA67AB;}
	.st24{fill:#FFD7F1;}
	.st25{fill:#168882;}
	.st26{fill:#F0F0F0;}
	.st27{fill:url(#SVGID_11_);}
	.st28{fill:url(#SVGID_12_);}
	.st29{fill:#866EC7;}
	.st30{fill:url(#SVGID_13_);}
	.st31{fill:url(#SVGID_14_);}
	.st32{fill:url(#SVGID_15_);}
	.st33{fill:url(#SVGID_16_);}
	.st34{fill:url(#SVGID_17_);}
	.st35{fill:url(#SVGID_18_);}
	.st36{fill:#CDD9FF;}
	.st37{fill:url(#SVGID_19_);}
	.st38{fill:url(#SVGID_20_);}
	.st39{fill:url(#SVGID_21_);}
	.st40{fill:url(#SVGID_22_);}
	.st41{fill:url(#SVGID_23_);}
	.st42{fill:url(#SVGID_24_);}
	.st43{fill:url(#SVGID_25_);}
	.st44{fill:url(#SVGID_26_);}
	.st45{fill:url(#SVGID_27_);}
	.st46{fill:url(#SVGID_28_);}
	.st47{fill:url(#SVGID_29_);}
	.st48{fill:url(#SVGID_30_);}
	.st49{fill:#151130;}
	.st50{fill:#FFB192;}
	.st51{fill:url(#SVGID_31_);}
	.st52{fill:url(#SVGID_32_);stroke:#000000;stroke-miterlimit:10;}
	.st53{fill:#352961;}
	.st54{fill:url(#SVGID_33_);}
	.st55{fill:url(#SVGID_34_);}
	.st56{fill:url(#SVGID_35_);}
	.st57{fill:url(#SVGID_36_);}
	.st58{fill:url(#SVGID_37_);}
	.st59{fill:url(#SVGID_38_);}
	.st60{fill:url(#SVGID_39_);}
	.st61{fill:#FFEEF6;}
	.st62{fill:url(#SVGID_40_);}
	.st63{fill:url(#SVGID_41_);}
</style>
<linearGradient id="SVGID_1_" gradientUnits="userSpaceOnUse" x1="346.031" y1="161.53" x2="346.031" y2="-23.0779" gradientTransform="matrix(1 0 0 -1 0 544)">
	<stop  offset="0" style="stop-color:#866EC7"/>
	<stop  offset="1" style="stop-color:#866EC7;stop-opacity:0"/>
</linearGradient>
<path class="st0" d="M346,543c191.1,0,346-6,346-13.4c0-7.4-154.9-13.4-346-13.4s-346,6-346,13.4C0,537,154.9,543,346,543z"/>
<linearGradient id="SVGID_2_" gradientUnits="userSpaceOnUse" x1="512.024" y1="-20.1639" x2="423.21" y2="290.8551" gradientTransform="matrix(1 0 0 -1 0 544)">
	<stop  offset="0" style="stop-color:#866EC7"/>
	<stop  offset="1" style="stop-color:#F2C0FF"/>
</linearGradient>
<path class="st1" d="M502.9,278.1l-65.2,249.8c-0.2,0.9-0.8,1.8-1.6,2.4s-1.7,0.9-2.7,0.9c-0.7,0-1.3-0.2-1.9-0.4s-1.1-0.7-1.5-1.2
	c-0.4-0.5-0.7-1.1-0.9-1.7c-0.2-0.6-0.2-1.3,0-1.9l52.2-247.8H502.9z"/>
<linearGradient id="SVGID_3_" gradientUnits="userSpaceOnUse" x1="710.7891" y1="61.4553" x2="549.377" y2="226.1342" gradientTransform="matrix(1 0 0 -1 0 544)">
	<stop  offset="0" style="stop-color:#866EC7"/>
	<stop  offset="1" style="stop-color:#F2C0FF"/>
</linearGradient>
<path class="st2" d="M589.9,278.1l65.2,249.8c0.2,0.9,0.8,1.8,1.6,2.4c0.8,0.6,1.7,0.9,2.7,0.9c0.7,0,1.3-0.2,1.9-0.4
	c0.6-0.3,1.1-0.7,1.5-1.2c0.4-0.5,0.7-1.1,0.9-1.7c0.2-0.6,0.2-1.3,0-1.9l-52.2-247.8H589.9z"/>
<linearGradient id="SVGID_4_" gradientUnits="userSpaceOnUse" x1="196.2011" y1="126.2823" x2="130.3826" y2="159.5246" gradientTransform="matrix(1 0 0 -1 0 544)">
	<stop  offset="0" style="stop-color:#866EC7"/>
	<stop  offset="1" style="stop-color:#F2C0FF"/>
</linearGradient>
<path class="st3" d="M205.6,278.1l-65.2,249.8c-0.2,0.9-0.8,1.8-1.6,2.4s-1.7,0.9-2.7,0.9c-0.7,0-1.3-0.2-1.9-0.4
	c-0.6-0.3-1.1-0.7-1.5-1.2c-0.4-0.5-0.7-1.1-0.9-1.7c-0.2-0.6-0.2-1.3,0-1.9l52.2-247.8H205.6z"/>
<linearGradient id="SVGID_5_" gradientUnits="userSpaceOnUse" x1="387.4507" y1="101.9169" x2="227.5536" y2="183.9503" gradientTransform="matrix(1 0 0 -1 0 544)">
	<stop  offset="0" style="stop-color:#866EC7"/>
	<stop  offset="1" style="stop-color:#F2C0FF"/>
</linearGradient>
<path class="st4" d="M269.6,278.1l65.2,249.8c0.2,0.9,0.8,1.8,1.6,2.4s1.7,0.9,2.7,0.9c0.7,0,1.3-0.1,1.9-0.4
	c0.6-0.3,1.1-0.7,1.5-1.2c0.4-0.5,0.7-1.1,0.9-1.7c0.2-0.6,0.2-1.3,0-2l-52.2-247.8H269.6z"/>
<linearGradient id="SVGID_6_" gradientUnits="userSpaceOnUse" x1="-70.3149" y1="270.5055" x2="536.68" y2="270.5055" gradientTransform="matrix(1 0 0 -1 0 544)">
	<stop  offset="0" style="stop-color:#BF9FEE"/>
	<stop  offset="1" style="stop-color:#F2C0FF"/>
</linearGradient>
<path class="st5" d="M625.4,278.1H167.8c-1.2,0-2.4-0.5-3.3-1.4c-0.9-0.9-1.4-2-1.4-3.3c0-1.2,0.5-2.4,1.4-3.3
	c0.9-0.9,2-1.4,3.3-1.4h457.6c1.2,0,2.4,0.5,3.3,1.4c0.9,0.9,1.4,2,1.4,3.3c0,1.2-0.5,2.4-1.4,3.3
	C627.8,277.6,626.6,278.1,625.4,278.1z"/>
<linearGradient id="SVGID_7_" gradientUnits="userSpaceOnUse" x1="69705" y1="270.5145" x2="26196.6992" y2="270.5145" gradientTransform="matrix(1 0 0 -1 0 544)">
	<stop  offset="0" style="stop-color:#866EC7"/>
	<stop  offset="1" style="stop-color:#F2C0FF"/>
</linearGradient>
<path class="st6" d="M625.4,268.8c1.2,0,2.4,0.5,3.3,1.4c0.9,0.9,1.4,2.1,1.4,3.3c0,1.2-0.5,2.4-1.4,3.3c-0.9,0.9-2.1,1.4-3.3,1.4
	H470.7v-9.3H625.4z"/>
<path class="st7" d="M538,174.4h-16.6V269H538V174.4z"/>
<path class="st8" d="M568.9,174.4H538V269h30.9V174.4z"/>
<path class="st9" d="M532.2,188.2h-5.1v54.6h5.1V188.2z"/>
<path class="st8" d="M529.6,255.2c1.4,0,2.5-1.1,2.5-2.5s-1.1-2.5-2.5-2.5s-2.5,1.1-2.5,2.5S528.2,255.2,529.6,255.2z"/>
<path class="st10" d="M521.4,174.4h-16.6V269h16.6V174.4z"/>
<path class="st9" d="M515.6,188.2h-5.1v54.6h5.1V188.2z"/>
<path class="st11" d="M513,255.2c1.4,0,2.5-1.1,2.5-2.5s-1.1-2.5-2.5-2.5c-1.4,0-2.5,1.1-2.5,2.5S511.6,255.2,513,255.2z"/>
<path class="st12" d="M504.8,174.4h-16.6V269h16.6V174.4z"/>
<path class="st9" d="M498.9,188.2h-5.1v54.6h5.1V188.2z"/>
<path class="st13" d="M496.4,255.2c1.4,0,2.5-1.1,2.5-2.5s-1.1-2.5-2.5-2.5c-1.4,0-2.5,1.1-2.5,2.5S495,255.2,496.4,255.2z"/>
<linearGradient id="SVGID_8_" gradientUnits="userSpaceOnUse" x1="-30.6033" y1="290.6364" x2="-45.4158" y2="290.6364" gradientTransform="matrix(1 0 0 -1 0 544)">
	<stop  offset="0" style="stop-color:#D30746"/>
	<stop  offset="1" style="stop-color:#FF1F5A"/>
</linearGradient>
<path class="st14" d="M433.6,246.8c-1.3,0-2.6,0.4-3.6,1.1c-1.1,0.7-1.9,1.7-2.4,2.9c-0.5,1.2-0.6,2.5-0.4,3.8
	c0.3,1.3,0.9,2.4,1.8,3.4c0.9,0.9,2.1,1.5,3.4,1.8c1.3,0.3,2.6,0.1,3.8-0.4c1.2-0.5,2.2-1.3,2.9-2.4c0.7-1.1,1.1-2.3,1.1-3.6
	c0-1.7-0.7-3.4-1.9-4.6C437,247.5,435.3,246.8,433.6,246.8z M433.6,256c-0.5,0-1-0.2-1.5-0.4c-0.4-0.3-0.8-0.7-1-1.2
	c-0.2-0.5-0.3-1-0.2-1.5c0.1-0.5,0.4-1,0.7-1.3c0.4-0.4,0.8-0.6,1.3-0.7c0.5-0.1,1-0.1,1.5,0.1c0.5,0.2,0.9,0.5,1.2,1
	c0.3,0.4,0.4,0.9,0.4,1.5c0,0.7-0.3,1.4-0.8,1.8C434.9,255.7,434.3,256,433.6,256L433.6,256z"/>
<linearGradient id="SVGID_9_" gradientUnits="userSpaceOnUse" x1="449.887" y1="276.488" x2="449.887" y2="297.263" gradientTransform="matrix(1 0 0 -1 0 544)">
	<stop  offset="0" style="stop-color:#FF1F5A"/>
	<stop  offset="1" style="stop-color:#FF6C7E"/>
</linearGradient>
<path class="st15" d="M436.9,242.2h26.1c0.5,0,1,0.2,1.4,0.6c0.4,0.4,0.6,0.9,0.6,1.4v17.2c0,2-0.8,3.9-2.2,5.3s-3.3,2.2-5.3,2.2
	h-15c-2,0-3.9-0.8-5.3-2.2c-1.4-1.4-2.2-3.3-2.2-5.3v-17.2c0-0.5,0.2-1,0.6-1.4C435.8,242.4,436.3,242.2,436.9,242.2z"/>
<path class="st16" d="M375,463.4h3.5c0-4.9,1.9-9.5,5.4-13c3.4-3.4,8.1-5.4,13-5.4c4.9,0,9.5,1.9,13,5.4c3.4,3.4,5.4,8.1,5.4,13h3.5
	c-0.1-5.7-2.5-11.2-6.6-15.2c-4.1-4-9.6-6.3-15.3-6.3c-5.7,0-11.2,2.2-15.3,6.3C377.5,452.2,375.2,457.7,375,463.4z"/>
<path class="st17" d="M453.8,458.1H351.3v73.1h102.5V458.1z"/>
<path class="st9" d="M400.5,501.7h-7.2c-0.9,0-1.9-0.2-2.7-0.5c-0.9-0.4-1.6-0.9-2.3-1.5c-0.7-0.7-1.2-1.4-1.5-2.3
	c-0.4-0.9-0.5-1.8-0.5-2.7h21.3c0,1.9-0.7,3.7-2.1,5C404.2,501,402.4,501.7,400.5,501.7z"/>
<path class="st16" d="M453.8,493.8H351.3v1.8h102.5V493.8z"/>
<path class="st16" d="M453.7,458.1h-10.3v73.1h10.3V458.1z"/>
<path class="st18" d="M591.7,419.6c0,0,20.1-36.4,58.3-27.3c0,0,5.4,48.5-50,69.6C600,461.9,607.6,425.6,591.7,419.6z"/>
<path class="st19" d="M599.3,437.4l16.7-14.8l2.3-12.8l0.9,0.2l-2.1,11.7l11.3-10l2.4-12.9l0.9,0.2l-2.2,11.8l12.1-10.7l0.6,0.7
	l-17.7,15.7l12.2,2.2l-0.2,0.9l-12.9-2.4l-13.2,11.7l12.2,2.2l-0.2,0.9l-12.8-2.4l-9.6,8.5L599.3,437.4z"/>
<linearGradient id="SVGID_10_" gradientUnits="userSpaceOnUse" x1="257.54" y1="45.9565" x2="178.717" y2="45.9565" gradientTransform="matrix(1 0 0 -1 0 544)">
	<stop  offset="0" style="stop-color:#71397C"/>
	<stop  offset="1" style="stop-color:#C582D5"/>
</linearGradient>
<path class="st20" d="M557.3,534.2h39c1.4,0,2.8-0.5,3.8-1.4c1.1-0.9,1.7-2.2,1.9-3.6l7.8-59.2c0.2-1.9-0.3-3.8-1.4-5.3
	c-1.1-1.5-2.8-2.5-4.7-2.7c-0.3,0-0.6-0.1-0.9-0.1h-52c-1.9,0-3.7,0.8-5,2.1c-1.3,1.3-2.1,3.1-2.1,5c0,0.3,0,0.6,0.1,0.9l7.8,59.2
	c0.2,1.4,0.9,2.7,1.9,3.6C554.5,533.7,555.9,534.2,557.3,534.2z"/>
<path class="st21" d="M598.5,461.9c0,0,26.1-24.2,4.9-39.2c-21.2-15-8.5-23.9,1.7-37.1c10.2-13.2-13.2-23.4-5.7-40.2
	c7.5-16.8-21.2-32.3-25.6-5.3c-4.4,27,17.1,29.4,3,53.6c-14.1,24.1,6.1,52.6,0,68.3L598.5,461.9z"/>
<path class="st22" d="M589.6,462.2c0.1-0.2,13.5-22.8,2.4-35.3c-11.2-12.6-12.2-29.7-2.5-40.6c5.2-5.8,2.9-12.8,0.5-20.2
	c-2.4-7.4-5.2-16-0.5-24.7l-0.8-0.4c-4.9,9-2.1,17.7,0.4,25.4c2.4,7.4,4.5,13.9-0.4,19.3c-10.1,11.3-9.1,28.9,2.5,41.9
	c10.7,12-2.4,34-2.5,34.3L589.6,462.2z"/>
<path class="st23" d="M576.8,461.9c0,0,1.9-48.9-44.6-70.6c-46.4-21.7-61.5,19.7-41.1,35.3c20.3,15.6,52,5.6,68,35.3L576.8,461.9z"
	/>
<path class="st24" d="M569.7,462l0.9-0.1c0-0.1-1.7-12.6-11.2-25.8c-8.7-12.2-26.1-27.7-58.9-31.8l-0.1,0.9
	c32.5,4.1,49.6,19.4,58.2,31.4C567.9,449.6,569.6,461.9,569.7,462z"/>
<path class="st25" d="M249.5,238.2l215.9,0.9c5.4,0,9.8-5.3,9.8-10.7V85.6c0-1.5-0.3-2.9-0.8-4.3c-0.6-1.4-1.4-2.6-2.4-3.6
	c-1-1-2.3-1.9-3.6-2.4c-1.4-0.6-2.8-0.9-4.3-0.8H251.3c-2.5,0-4.8,1-6.5,2.7c-1.7,1.7-2.7,4.1-2.7,6.6v147c0,1,0.2,2,0.6,2.9
	c0.4,0.9,0.9,1.7,1.6,2.4c0.7,0.7,1.5,1.3,2.4,1.6C247.5,238,248.5,238.2,249.5,238.2L249.5,238.2z"/>
<path class="st26" d="M468.1,228.4c0,5.3-4.2,10.4-9.4,10.7l-188.3-0.8l-21.5-0.1c-2,0-3.9-0.8-5.3-2.2c-1.4-1.4-2.2-3.3-2.2-5.3
	v-16.4h226.7V228.4z"/>
<path class="st9" d="M354.7,232.4c3.2,0,5.8-2.6,5.8-5.8c0-3.2-2.6-5.8-5.8-5.8c-3.2,0-5.8,2.6-5.8,5.8
	C349,229.9,351.5,232.4,354.7,232.4z"/>
<linearGradient id="SVGID_11_" gradientUnits="userSpaceOnUse" x1="354.0893" y1="305.368" x2="354.0893" y2="275.135" gradientTransform="matrix(1 0 0 -1 0 544)">
	<stop  offset="0" style="stop-color:#866EC7"/>
	<stop  offset="1" style="stop-color:#F2C0FF"/>
</linearGradient>
<path class="st27" d="M395,238.8l2.2,18.9c0.2,1.3,0,2.6-0.3,3.9c-0.4,1.3-1,2.5-1.8,3.5s-1.8,1.9-3,2.5c-1.2,0.6-2.4,1.1-3.7,1.2
	c-0.4,0-0.8,0.1-1.2,0.1h-76.3c0-2.1,0.8-4.1,2.3-5.6c1.5-1.5,3.5-2.3,5.6-2.3h27.2c2.3,0,4.5-0.9,6.1-2.5c1.6-1.6,2.5-3.8,2.5-6.1
	v-13.7L395,238.8z"/>
<linearGradient id="SVGID_12_" gradientUnits="userSpaceOnUse" x1="35275.3008" y1="281.044" x2="47658.3984" y2="281.044" gradientTransform="matrix(1 0 0 -1 0 544)">
	<stop  offset="0" style="stop-color:#866EC7"/>
	<stop  offset="1" style="stop-color:#F2C0FF"/>
</linearGradient>
<path class="st28" d="M310.9,268.8h76.3c1.3,0,2.6-0.3,3.8-0.8c1.2-0.5,2.3-1.2,3.3-2.2c0.9-0.9,1.7-2,2.2-3.3
	c0.5-1.2,0.8-2.5,0.8-3.8c0-0.4,0-0.8-0.1-1.1l-0.1-0.6c-0.4,2.4-1.6,4.5-3.4,6.1c-1.8,1.6-4.1,2.4-6.5,2.4h-75.6
	C311.1,266.6,310.9,267.7,310.9,268.8z"/>
<path class="st29" d="M389.9,238.8l2.2,18.9c0.2,1.3,0,2.6-0.3,3.9c-0.4,1.3-1,2.5-1.8,3.5c-0.8,1-1.8,1.9-3,2.5
	c-1.2,0.6-2.4,1-3.7,1.2c-0.4,0-0.8,0.1-1.2,0.1h5.1c1.3,0,2.6-0.3,3.8-0.8c1.2-0.5,2.3-1.2,3.3-2.2c0.9-0.9,1.7-2,2.2-3.3
	c0.5-1.2,0.8-2.5,0.8-3.8c0-0.4,0-0.8-0.1-1.1l-2.2-18.9L389.9,238.8z"/>
<linearGradient id="SVGID_13_" gradientUnits="userSpaceOnUse" x1="57.9789" y1="279.133" x2="162.354" y2="279.133" gradientTransform="matrix(1 0 0 -1 0 544)">
	<stop  offset="0" style="stop-color:#F2C0FF"/>
	<stop  offset="1" style="stop-color:#FFEEF6"/>
</linearGradient>
<path class="st30" d="M363.7,268.8H239.4v-8h116.3c2.1,0,4.1,0.8,5.6,2.3C362.8,264.7,363.6,266.7,363.7,268.8L363.7,268.8z"/>
<linearGradient id="SVGID_14_" gradientUnits="userSpaceOnUse" x1="456.882" y1="156.6929" x2="475.157" y2="156.6929">
	<stop  offset="0" style="stop-color:#1F4B3F"/>
	<stop  offset="1" style="stop-color:#168882"/>
</linearGradient>
<path class="st31" d="M458.3,239.1h7.1c5.4,0,9.8-5.3,9.8-10.7V85.5c0-1.5-0.3-2.9-0.8-4.3c-0.6-1.4-1.4-2.6-2.4-3.6
	c-1-1-2.3-1.9-3.6-2.4c-1.4-0.6-2.8-0.9-4.3-0.9h-7.1c1.5,0,2.9,0.3,4.3,0.8s2.6,1.4,3.6,2.4c1,1,1.9,2.3,2.4,3.6
	c0.6,1.4,0.9,2.8,0.9,4.3v142.9C468.1,233.8,463.7,239.1,458.3,239.1z"/>
<linearGradient id="SVGID_15_" gradientUnits="userSpaceOnUse" x1="466.72" y1="253.4845" x2="466.72" y2="253.8557">
	<stop  offset="0" style="stop-color:#1F4B3F"/>
	<stop  offset="1" style="stop-color:#1F4B3F"/>
</linearGradient>
<path class="st32" d="M465.4,239.1h-7.1c5.4,0,9.8-5.3,9.8-10.7v-14.1l7.1-0.7v14.8C475.1,233.8,470.8,239.1,465.4,239.1z"/>
<linearGradient id="SVGID_16_" gradientUnits="userSpaceOnUse" x1="350.762" y1="489.9199" x2="377.666" y2="489.9199" gradientTransform="matrix(1 0 0 -1 0 544)">
	<stop  offset="0" style="stop-color:#00C6FF"/>
	<stop  offset="1" style="stop-color:#0072FF"/>
</linearGradient>
<path class="st33" d="M403,54.1c0,3.6,1.4,7,3.9,9.5c2.5,2.5,5.9,3.9,9.5,3.9c3.6,0,7-1.4,9.5-3.9c2.5-2.5,3.9-5.9,3.9-9.5
	c0-3.6-1.4-7-3.9-9.5c-2.5-2.5-5.9-3.9-9.5-3.9c-3.6,0-7,1.4-9.5,3.9C404.4,47.1,403,50.5,403,54.1L403,54.1z"/>
<path class="st9" d="M412.8,48.8c0,0.7,0.2,1.4,0.6,2c0.4,0.6,0.9,1,1.6,1.3c0.6,0.3,1.4,0.3,2.1,0.2c0.7-0.1,1.3-0.5,1.8-1
	c0.5-0.5,0.8-1.1,1-1.8c0.1-0.7,0.1-1.4-0.2-2.1c-0.3-0.7-0.7-1.2-1.3-1.6c-0.6-0.4-1.3-0.6-2-0.6c-0.9,0-1.9,0.4-2.5,1
	C413.2,46.9,412.8,47.8,412.8,48.8z"/>
<path class="st9" d="M407.4,64.1c2.5,2.2,5.7,3.5,9,3.5c3.3,0,6.6-1.2,9-3.5c-1.2-5.5-4.8-9.5-9-9.5S408.6,58.5,407.4,64.1z"/>
<linearGradient id="SVGID_17_" gradientUnits="userSpaceOnUse" x1="473.301" y1="482.9482" x2="508.386" y2="482.9482" gradientTransform="matrix(1 0 0 -1 0 544)">
	<stop  offset="0" style="stop-color:#FDC830"/>
	<stop  offset="1" style="stop-color:#F37335"/>
</linearGradient>
<path class="st34" d="M289.8,78.6c9.7,0,17.5-7.9,17.5-17.5s-7.9-17.5-17.5-17.5c-9.7,0-17.5,7.9-17.5,17.5S280.1,78.6,289.8,78.6z"
	/>
<path class="st9" d="M282.7,62.2v4.6c0,1.1,0.4,2.1,1.2,2.9c0.8,0.8,1.8,1.2,2.9,1.2h6.2c1.1,0,2.1-0.4,2.9-1.2s1.2-1.8,1.2-2.9
	v-4.6c0-0.7-0.2-1.4-0.5-2c-0.3-0.6-0.8-1.1-1.4-1.5V56c0-0.7-0.1-1.3-0.4-2c-0.3-0.6-0.6-1.2-1.1-1.7c-0.5-0.5-1-0.9-1.6-1.1
	c-0.6-0.3-1.3-0.4-2-0.4c-0.7,0-1.3,0.1-2,0.4c-0.6,0.2-1.2,0.6-1.7,1.1c-0.5,0.5-0.9,1-1.1,1.6c-0.3,0.6-0.4,1.3-0.4,2
	c0,0,0,0.1,0,0.1v2.8c-0.6,0.4-1.1,0.9-1.5,1.5C282.9,60.8,282.7,61.5,282.7,62.2z M287.8,63.7c0-0.5,0.2-1,0.6-1.4
	c0.4-0.4,0.9-0.6,1.4-0.6c0.5,0,1,0.2,1.4,0.6c0.4,0.4,0.6,0.9,0.6,1.4c0,0.4-0.1,0.8-0.4,1.1s-0.6,0.6-1,0.7v1.2
	c0,0.2-0.1,0.3-0.2,0.4c-0.1,0.1-0.3,0.2-0.4,0.2c-0.2,0-0.3-0.1-0.4-0.2c-0.1-0.1-0.2-0.3-0.2-0.4v-1.2c-0.4-0.1-0.7-0.4-1-0.7
	C288,64.5,287.8,64.1,287.8,63.7L287.8,63.7z M286.7,58.2c-0.4,0-0.7,0.1-1.1,0.2V56c0-1.1,0.4-2.2,1.2-2.9c0.8-0.8,1.8-1.2,2.9-1.2
	c1.1,0,2.2,0.4,2.9,1.2c0.8,0.8,1.2,1.8,1.2,2.9v2.4c-0.3-0.1-0.7-0.2-1.1-0.2L286.7,58.2z"/>
<linearGradient id="SVGID_18_" gradientUnits="userSpaceOnUse" x1="422.334" y1="515.5104" x2="462.856" y2="515.5104" gradientTransform="matrix(1 0 0 -1 0 544)">
	<stop  offset="0" style="stop-color:#FF1F5A"/>
	<stop  offset="1" style="stop-color:#FFB5B3"/>
</linearGradient>
<path class="st35" d="M338,48.8c11.2,0,20.3-9.1,20.3-20.3S349.2,8.2,338,8.2s-20.3,9.1-20.3,20.3S326.8,48.8,338,48.8z"/>
<path class="st9" d="M349.5,20h-23v17h23V20z"/>
<path class="st36" d="M326.5,20l9.1,8.5c0.6,0.6,1.5,0.9,2.3,0.9c0.9,0,1.7-0.3,2.3-0.9l9.1-8.5H326.5z"/>
<path class="st36" d="M340.1,28.8l9.4,8.2l-8.8-8.9L340.1,28.8z"/>
<path class="st36" d="M335.4,28.1l-8.8,8.9l9.4-8.2L335.4,28.1z"/>
<linearGradient id="SVGID_19_" gradientUnits="userSpaceOnUse" x1="378.16" y1="531.1792" x2="403.802" y2="531.1792" gradientTransform="matrix(1 0 0 -1 0 544)">
	<stop  offset="0" style="stop-color:#DBE42C"/>
	<stop  offset="1" style="stop-color:#6AD419"/>
</linearGradient>
<path class="st37" d="M389.7,25.6c7.1,0,12.8-5.7,12.8-12.8c0-7.1-5.7-12.8-12.8-12.8s-12.8,5.7-12.8,12.8
	C376.9,19.9,382.6,25.6,389.7,25.6z"/>
<path class="st9" d="M387.5,18.2c-0.2,0-0.3,0-0.5-0.1c-0.2-0.1-0.3-0.2-0.4-0.3l-3.7-3.7c-0.3-0.2-0.4-0.6-0.4-0.9s0.1-0.7,0.4-0.9
	s0.6-0.4,0.9-0.4c0.4,0,0.7,0.1,0.9,0.4l2.7,2.8l7.1-7.1c0.2-0.3,0.6-0.4,0.9-0.4s0.7,0.1,0.9,0.4c0.3,0.2,0.4,0.6,0.4,0.9
	c0,0.4-0.1,0.7-0.4,0.9l-8.1,8.1C388.2,18,387.9,18.2,387.5,18.2z"/>
<linearGradient id="SVGID_20_" gradientUnits="userSpaceOnUse" x1="385.755" y1="454.7331" x2="385.755" y2="467.389" gradientTransform="matrix(1 0 0 -1 0 544)">
	<stop  offset="0" style="stop-color:#0072FF"/>
	<stop  offset="1" style="stop-color:#00C6FF;stop-opacity:0"/>
</linearGradient>
<path class="st38" d="M385.8,86.2c1.2,0,2.2-1,2.2-2.2s-1-2.2-2.2-2.2c-1.2,0-2.2,1-2.2,2.2S384.5,86.2,385.8,86.2z"/>
<linearGradient id="SVGID_21_" gradientUnits="userSpaceOnUse" x1="374.2749" y1="475.049" x2="374.6931" y2="483.8896" gradientTransform="matrix(1 0 0 -1 0 544)">
	<stop  offset="0" style="stop-color:#0072FF"/>
	<stop  offset="1" style="stop-color:#00C6FF;stop-opacity:0"/>
</linearGradient>
<path class="st39" d="M374.5,69c2.4,0,4.4-2,4.4-4.4c0-2.4-2-4.4-4.4-4.4s-4.4,2-4.4,4.4C370.1,67,372,69,374.5,69z"/>
<linearGradient id="SVGID_22_" gradientUnits="userSpaceOnUse" x1="373.1575" y1="500.105" x2="373.1575" y2="486.8632" gradientTransform="matrix(1 0 0 -1 0 544)">
	<stop  offset="0" style="stop-color:#DBE42C;stop-opacity:0"/>
	<stop  offset="1" style="stop-color:#6AD419"/>
</linearGradient>
<path class="st40" d="M373.2,48.3c1.7,0,3.1-1.4,3.1-3.1c0-1.7-1.4-3.1-3.1-3.1s-3.1,1.4-3.1,3.1C370.1,46.9,371.4,48.3,373.2,48.3z
	"/>
<linearGradient id="SVGID_23_" gradientUnits="userSpaceOnUse" x1="391.0615" y1="4690.3501" x2="391.0615" y2="4719.4399" gradientTransform="matrix(1 0 0 -1 0 544)">
	<stop  offset="0" style="stop-color:#0072FF"/>
	<stop  offset="1" style="stop-color:#00C6FF;stop-opacity:0"/>
</linearGradient>
<path class="st41" d="M391.1,67c0.8,0,1.4-0.6,1.4-1.4c0-0.8-0.6-1.4-1.4-1.4c-0.8,0-1.4,0.6-1.4,1.4C389.7,66.4,390.3,67,391.1,67z
	"/>
<linearGradient id="SVGID_24_" gradientUnits="userSpaceOnUse" x1="329.824" y1="472.1538" x2="329.824" y2="465.8623" gradientTransform="matrix(1 0 0 -1 0 544)">
	<stop  offset="0" style="stop-color:#FDC830;stop-opacity:0"/>
	<stop  offset="1" style="stop-color:#F37335"/>
</linearGradient>
<path class="st42" d="M329.8,72.6c1,0,1.8-0.8,1.8-1.8s-0.8-1.8-1.8-1.8c-1,0-1.8,0.8-1.8,1.8S328.8,72.6,329.8,72.6z"/>
<linearGradient id="SVGID_25_" gradientUnits="userSpaceOnUse" x1="314.6565" y1="5231.9399" x2="314.6565" y2="5203.3398" gradientTransform="matrix(1 0 0 -1 0 544)">
	<stop  offset="0" style="stop-color:#FDC830;stop-opacity:0"/>
	<stop  offset="1" style="stop-color:#F37335"/>
</linearGradient>
<path class="st43" d="M314.7,67.2c0.8,0,1.4-0.6,1.4-1.4c0-0.8-0.6-1.4-1.4-1.4s-1.4,0.6-1.4,1.4C313.2,66.5,313.9,67.2,314.7,67.2z
	"/>
<linearGradient id="SVGID_26_" gradientUnits="userSpaceOnUse" x1="351.161" y1="473.2079" x2="351.161" y2="483.1537" gradientTransform="matrix(1 0 0 -1 0 544)">
	<stop  offset="0" style="stop-color:#FF1F5A"/>
	<stop  offset="1" style="stop-color:#FFB5B3;stop-opacity:0"/>
</linearGradient>
<path class="st44" d="M351.2,67.3c0.9,0,1.6-0.7,1.6-1.6c0-0.9-0.7-1.6-1.6-1.6c-0.9,0-1.6,0.7-1.6,1.6
	C349.5,66.6,350.3,67.3,351.2,67.3z"/>
<linearGradient id="SVGID_27_" gradientUnits="userSpaceOnUse" x1="352.813" y1="7149.02" x2="352.813" y2="7184.3501" gradientTransform="matrix(1 0 0 -1 0 544)">
	<stop  offset="0" style="stop-color:#FF1F5A"/>
	<stop  offset="1" style="stop-color:#FFB5B3;stop-opacity:0"/>
</linearGradient>
<path class="st45" d="M352.8,84.8c0.9,0,1.6-0.7,1.6-1.6c0-0.9-0.7-1.6-1.6-1.6c-0.9,0-1.6,0.7-1.6,1.6
	C351.2,84,351.9,84.8,352.8,84.8z"/>
<linearGradient id="SVGID_28_" gradientUnits="userSpaceOnUse" x1="321.0855" y1="21993.3008" x2="321.0855" y2="21931.6992" gradientTransform="matrix(1 0 0 -1 0 544)">
	<stop  offset="0" style="stop-color:#FDC830;stop-opacity:0"/>
	<stop  offset="1" style="stop-color:#F37335"/>
</linearGradient>
<path class="st46" d="M321.1,59.8c1.5,0,2.8-1.2,2.8-2.8s-1.2-2.8-2.8-2.8c-1.5,0-2.8,1.2-2.8,2.8S319.6,59.8,321.1,59.8z"/>
<linearGradient id="SVGID_29_" gradientUnits="userSpaceOnUse" x1="361.218" y1="2933.6799" x2="361.218" y2="2952.54" gradientTransform="matrix(1 0 0 -1 0 544)">
	<stop  offset="0" style="stop-color:#FF1F5A"/>
	<stop  offset="1" style="stop-color:#FFB5B3;stop-opacity:0"/>
</linearGradient>
<path class="st47" d="M361.2,52.9c0.6,0,1.1-0.5,1.1-1.1s-0.5-1.1-1.1-1.1c-0.6,0-1.1,0.5-1.1,1.1S360.6,52.9,361.2,52.9z"/>
<linearGradient id="SVGID_30_" gradientUnits="userSpaceOnUse" x1="397.917" y1="8299.5" x2="397.917" y2="8261.4297" gradientTransform="matrix(1 0 0 -1 0 544)">
	<stop  offset="0" style="stop-color:#DBE42C;stop-opacity:0"/>
	<stop  offset="1" style="stop-color:#6AD419"/>
</linearGradient>
<path class="st48" d="M397.9,38.8c1,0,1.8-0.8,1.8-1.8s-0.8-1.8-1.8-1.8c-1,0-1.8,0.8-1.8,1.8S396.9,38.8,397.9,38.8z"/>
<path class="st49" d="M210.1,494.8c0,0,3.5-5.1,15,8.8c7.9,9.5,19.5,2.7,24.3,7.1c1.4,1.4,2.4,3.2,2.7,5.2c0.2,1,0.2,2.1,0,3.1
	c-0.2,1-0.6,2-1.2,2.8c-0.6,0.9-1.3,1.6-2.2,2.2c-0.9,0.6-1.8,1-2.8,1.2c-0.5,0.1-1,0.2-1.6,0.1H228c-3.8,0.1-7.6-0.6-11.1-2.1
	c-1.1-0.5-2.3-0.7-3.5-0.7h-7.9c-1.8,0.1-3.5,0.8-4.8,1.9c-1.7,1.3-3.7,2.1-5.9,2.2c-2.6,0.2-5.1,0.1-7.7-0.2
	c-1.4-0.1-2.8-0.4-4.1-0.9c-1-0.5-1.8-1.3-2.4-2.1c-0.6-0.9-1-1.9-1.2-3c-0.8-4.7-3.3-12-0.6-21.2c0.4-1.2,1.1-2.3,2.1-3.1
	c1-0.8,2.3-1.2,3.6-1.2L210.1,494.8z"/>
<path class="st50" d="M210.1,494.8c0,0,2.3,0,4.6,4.4c2.6,4.9-4.5,7.2-15,6.2c-10.5-1-16.4-10.6-16.4-10.6H210.1z"/>
<linearGradient id="SVGID_31_" gradientUnits="userSpaceOnUse" x1="183.4069" y1="144.621" x2="183.4069" y2="231.431" gradientTransform="matrix(1 0 0 -1 0 544)">
	<stop  offset="0" style="stop-color:#774181"/>
	<stop  offset="1" style="stop-color:#352961"/>
</linearGradient>
<path class="st51" d="M161.8,314l108.1,1.9c5,0.1,9.8,2.2,13.4,5.8s5.4,8.5,5.3,13.5c0,1.3-0.2,2.5-0.4,3.8l-34.3,155.9h-26.3
	l11.9-124.7c0-0.3,0-0.7-0.1-1c-0.1-0.3-0.3-0.6-0.5-0.9c-0.2-0.3-0.5-0.5-0.8-0.6c-0.3-0.2-0.6-0.3-1-0.3c-0.2,0-0.3,0-0.5,0
	c-16.1,1.6-90.4,9.2-116.7,10.7C90.2,379.8,78.3,314,78.3,314L161.8,314z"/>
<linearGradient id="SVGID_32_" gradientUnits="userSpaceOnUse" x1="240.1023" y1="91.6475" x2="170.291" y2="140.9295" gradientTransform="matrix(1 0 0 -1 0 544)">
	<stop  offset="0" style="stop-color:#774181"/>
	<stop  offset="1" style="stop-color:#352961"/>
</linearGradient>
<path class="st52" d="M236.5,367.3l-26.4,127.5h-26.7l9-123.1L236.5,367.3z"/>
<path class="st53" d="M253.8,494.8c0,0,4-5.1,15.5,8.8c7.8,9.5,19.5,2.7,24.3,7.1c1.4,1.4,2.4,3.2,2.7,5.2c0.2,1,0.2,2.1,0,3.1
	c-0.2,1-0.6,2-1.2,2.8c-0.6,0.9-1.3,1.6-2.2,2.2c-0.9,0.6-1.8,1-2.8,1.2c-0.5,0.1-1,0.2-1.6,0.1h-17c-3.7,0-7.3-0.7-10.8-2.1
	c-1-0.4-2.2-0.6-3.3-0.6h-7.9c-1.5,0-2.9,0.4-4.2,1.1c-1.3,0.7-2.4,1.7-3.2,3H231c-1.8,0-3.5-0.6-4.9-1.8c-1.4-1.1-2.3-2.7-2.6-4.5
	c-0.9-5.4-1-14.2,3.9-25.5L253.8,494.8z"/>
<path class="st50" d="M253.8,494.8c0,0,2.8,0,5.1,4.4c2.6,4.9-4.5,7.2-15,6.2c-10.5-1-16.4-10.6-16.4-10.6H253.8z"/>
<linearGradient id="SVGID_33_" gradientUnits="userSpaceOnUse" x1="303.1566" y1="10.521" x2="212.2566" y2="189.833" gradientTransform="matrix(1 0 0 -1 0 544)">
	<stop  offset="0" style="stop-color:#1F4B3F"/>
	<stop  offset="1" style="stop-color:#168882"/>
</linearGradient>
<path class="st54" d="M165.3,147.5c0,0,18.8,12.3,28,17.3c9.2,5,28,80.8,32.8,81.6c4.7,0.9,42,0.4,42,0.4l9.1,11.2
	c0,0-42.6,14-62.3,16.7c-19.8,2.7-38-57.6-38-57.6s3.5,29.2-6.2,39.9c-10.6,11.8-11.4,42.4-8.8,56.9c0,0-38.5,15.2-83.6,0
	c0,0-1.8-88.4,0-116.3c1.8-27.9,14.6-51.3,51.7-53.7L165.3,147.5z"/>
<linearGradient id="SVGID_34_" gradientUnits="userSpaceOnUse" x1="169.5094" y1="121.5818" x2="141.7494" y2="214.9758" gradientTransform="matrix(1 0 0 -1 0 544)">
	<stop  offset="0" style="stop-color:#B122E5"/>
	<stop  offset="1" style="stop-color:#B122E5;stop-opacity:0"/>
</linearGradient>
<path class="st55" d="M78.2,314c0,0-0.3-13.5-0.5-31.5l55.3-7.6l8.1-44.5l20.4-24.1c0,0,10.9,14.6,7.1,26.1s-19,19.4-15.4,31.2
	c3.5,11.8-11.2,22.6-4.4,34.9c6.8,12.4,13,15.5,13,15.5S123.3,329.1,78.2,314z"/>
<linearGradient id="SVGID_35_" gradientUnits="userSpaceOnUse" x1="168.683" y1="324.3025" x2="177.4507" y2="324.3025" gradientTransform="matrix(1 0 0 -1 0 544)">
	<stop  offset="0" style="stop-color:#B122E5"/>
	<stop  offset="0" style="stop-color:#1F4B3F;stop-opacity:0.95"/>
	<stop  offset="1" style="stop-color:#1F4B3F;stop-opacity:0"/>
</linearGradient>
<path class="st56" d="M168.7,189.7l8.1,27.4l0.3,2.6c0.5,5.8,1.1,19.9-2.4,30C176.7,241.1,168.7,189.7,168.7,189.7z"/>
<path class="st50" d="M277.2,258.1c4.1,0,8.2-0.4,12.3-1c4.5-0.9,6.3,1.9,9.1,1.9c2.8,0-0.8-5.9-9.4-9.3c-8.6-3.4-20.1-1.7-20.1-1.7
	L277.2,258.1z"/>
<path class="st50" d="M169.5,134.9c1.3,2.3,2.9,5.1,4.4,8.2c5,0.8,11.4,0.6,13.7-4c3.2-6.6,4.9-30.3,5.5-39.2c-0.7,0.4-1.3,0.7-2,1
	c-2,0.9-4.1,1.2-6.3,1.1c-2.1-0.1-4.2-0.7-6.1-1.8c-1.9-1-4.3-1.3-5.6,2.3c-2.3,6.8,4,7.2,2.7,10.3
	C174.5,116,163.1,122.9,169.5,134.9z"/>
<linearGradient id="SVGID_36_" gradientUnits="userSpaceOnUse" x1="702.8829" y1="220.7219" x2="541.1829" y2="261.3669" gradientTransform="matrix(1 0 0 -1 0 544)">
	<stop  offset="0" style="stop-color:#3C2A4B"/>
	<stop  offset="1" style="stop-color:#7C3DB2"/>
</linearGradient>
<path class="st57" d="M191.1,101c-2,0.9-4.1,1.2-6.3,1.1c-2.1-0.1-4.2-0.7-6.1-1.8c-1.9-1.1-4.3-1.4-5.6,2.3
	c-2.4,6.8,4,7.2,2.7,10.3c-1.3,3.1-12.7,10-6.3,22c6.4,11.9,22.3,36.7-5.1,49.1c-27.4,12.4,13.3,24.8,3.5,46
	c-9.7,21.2-27.4,12.8-22.6,30.9c4.9,18.1-0.4,31.4-27.4,36.3c-27,4.9-44.7-3.5-54.8-31c-10.2-27.4,11.9-23.9,8-64.1
	c-4-40.2,22.6-51.7,37.1-59.3c14.6-7.5,4.4-17.8,8-46.1c3.5-28.3,21.8-38.4,36.3-38.4c14.4,0,34.6,19,46.9,22
	c12.2,2.9,3.7,11.7-2.2,16.7C195.3,98.6,193.3,99.9,191.1,101z"/>
<linearGradient id="SVGID_37_" gradientUnits="userSpaceOnUse" x1="592.6577" y1="96.6744" x2="668.8257" y2="98.4554" gradientTransform="matrix(1 0 0 -1 0 544)">
	<stop  offset="0" style="stop-color:#866EC7"/>
	<stop  offset="1" style="stop-color:#BF9FEE"/>
</linearGradient>
<path class="st58" d="M150,385.3l-6,143.4c0,0.5-0.2,1-0.6,1.4c-0.4,0.4-0.9,0.6-1.4,0.6c-0.5,0-1-0.2-1.4-0.6
	c-0.4-0.4-0.6-0.8-0.6-1.4l-6-143.4H150z"/>
<linearGradient id="SVGID_38_" gradientUnits="userSpaceOnUse" x1="204.6093" y1="84.4698" x2="233.4906" y2="88.0521" gradientTransform="matrix(1 0 0 -1 0 544)">
	<stop  offset="0" style="stop-color:#BF9FEE"/>
	<stop  offset="1" style="stop-color:#F2C0FF"/>
</linearGradient>
<path class="st59" d="M209.9,385.3l32.3,141.3c0.1,0.5,0.1,1,0,1.5c-0.1,0.5-0.3,0.9-0.6,1.3s-0.7,0.7-1.2,0.9
	c-0.4,0.2-0.9,0.3-1.4,0.3c-0.7,0-1.4-0.2-2-0.7c-0.6-0.4-1-1-1.2-1.7l-40.4-142.9H209.9z"/>
<path class="st29" d="M60.2,384.4L27.7,526.6c-0.2,0.9,0,1.8,0.4,2.5c0.5,0.7,1.2,1.3,2.1,1.5c0.2,0,0.5,0.1,0.7,0.1
	c0.7,0,1.4-0.2,2-0.7c0.6-0.4,1-1,1.2-1.7l40.4-143.8H60.2z"/>
<linearGradient id="SVGID_39_" gradientUnits="userSpaceOnUse" x1="127.8136" y1="158.709" x2="127.8136" y2="301.017" gradientTransform="matrix(1 0 0 -1 0 544)">
	<stop  offset="0" style="stop-color:#BF9FEE"/>
	<stop  offset="1" style="stop-color:#F2C0FF"/>
</linearGradient>
<path class="st60" d="M124.9,243H29.6l1.8,108.2c0,18.8,13.5,34.1,32.4,34.1h159.2c0.8,0,1.6-0.3,2.2-0.9c0.6-0.6,0.9-1.4,0.9-2.2
	c0-0.8-0.3-1.6-0.9-2.2c-0.6-0.6-1.4-0.9-2.2-0.9h-69c-5.6,0-11.1-2.2-15.2-6c-4.1-3.9-6.6-9.2-6.9-14.8L124.9,243z"/>
<path class="st61" d="M125.2,357.9L116.7,243h8.2l6.9,115.2c0.3,5.6,2.8,10.9,6.9,14.8c4.1,3.9,9.5,6,15.2,6h69c0.8,0,1.6,0.4,2.1,1
	c0.6,0.6,0.9,1.4,0.9,2.2c0,0.8-0.3,1.6-0.9,2.2c-0.6,0.6-1.3,0.9-2.1,1H152C136.8,385.3,126.2,373,125.2,357.9z"/>
<linearGradient id="SVGID_40_" gradientUnits="userSpaceOnUse" x1="133.571" y1="85.7233" x2="121.4236" y2="86.8035" gradientTransform="matrix(1 0 0 -1 0 544)">
	<stop  offset="0" style="stop-color:#BF9FEE"/>
	<stop  offset="1" style="stop-color:#F2C0FF"/>
</linearGradient>
<path class="st62" d="M127.8,385.3l-10.9,142.3c0,0.4,0,0.7,0.1,1.1c0.1,0.4,0.3,0.7,0.5,1c0.2,0.3,0.5,0.5,0.9,0.7
	c0.3,0.2,0.7,0.3,1.1,0.3h0.2c0.7,0,1.3-0.3,1.9-0.7c0.5-0.5,0.8-1.1,0.9-1.8l17.6-142.9L127.8,385.3z"/>
<path class="st26" d="M461,81.4H248.5v125.9H461V81.4z"/>
<path class="st9" d="M403,207.2h-96.5v-108c0-2.2,0.9-4.2,2.4-5.7c1.5-1.5,3.6-2.4,5.7-2.4h80.2c2.2,0,4.2,0.9,5.7,2.4
	s2.4,3.6,2.4,5.7L403,207.2z"/>
<linearGradient id="SVGID_41_" gradientUnits="userSpaceOnUse" x1="12978.2998" y1="428.0564" x2="13758.5029" y2="428.0564" gradientTransform="matrix(1 0 0 -1 0 544)">
	<stop  offset="0" style="stop-color:#B122E5"/>
	<stop  offset="1" style="stop-color:#FF63DE"/>
</linearGradient>
<path class="st63" d="M341.3,115.9c0,2.7,0.8,5.3,2.3,7.5c1.5,2.2,3.6,3.9,6,5c2.5,1,5.2,1.3,7.8,0.8c2.6-0.5,5-1.8,6.9-3.7
	c1.9-1.9,3.2-4.3,3.7-6.9c0.5-2.6,0.3-5.3-0.8-7.8c-1-2.5-2.7-4.6-4.9-6c-2.2-1.5-4.8-2.3-7.5-2.3c-1.8,0-3.5,0.3-5.1,1
	c-1.6,0.7-3.1,1.7-4.4,2.9c-1.3,1.2-2.2,2.7-2.9,4.4C341.6,112.4,341.3,114.2,341.3,115.9z"/>
<path class="st9" d="M351.2,110.6c0,0.7,0.2,1.4,0.6,2c0.4,0.6,0.9,1,1.6,1.3c0.7,0.3,1.4,0.3,2.1,0.2c0.7-0.1,1.3-0.5,1.8-1
	c0.5-0.5,0.8-1.1,1-1.8c0.1-0.7,0.1-1.4-0.2-2.1s-0.7-1.2-1.3-1.6c-0.6-0.4-1.3-0.6-2-0.6c-0.9,0-1.9,0.4-2.5,1
	C351.5,108.8,351.2,109.7,351.2,110.6L351.2,110.6z"/>
<path class="st9" d="M345.7,125.9c2.5,2.2,5.7,3.5,9,3.5c3.3,0,6.6-1.2,9-3.5c-1.2-5.5-4.8-9.5-9-9.5S346.9,120.4,345.7,125.9z"/>
<path class="st26" d="M377,145.2c0,0.8-0.3,1.6-0.9,2.2c-0.6,0.6-1.4,0.9-2.2,0.9h-49.2c-0.8,0-1.6-0.3-2.2-0.9s-0.9-1.4-0.9-2.2
	s0.3-1.6,0.9-2.2c0.6-0.6,1.4-0.9,2.2-0.9h49.2c0.8,0,1.6,0.3,2.2,0.9C376.7,143.5,377,144.4,377,145.2z"/>
<path class="st26" d="M387.9,145.2c0,0.8-0.3,1.6-0.9,2.2c-0.6,0.6-1.4,0.9-2.2,0.9c-0.4,0-0.8-0.1-1.2-0.2c-0.4-0.2-0.7-0.4-1-0.7
	c-0.3-0.3-0.5-0.6-0.7-1s-0.2-0.8-0.2-1.2c0-0.8,0.3-1.6,0.9-2.2s1.4-0.9,2.2-0.9c0.8,0,1.6,0.3,2.2,0.9
	C387.6,143.5,387.9,144.3,387.9,145.2z"/>
<path class="st26" d="M387.9,156.7c0,0.8-0.3,1.6-0.9,2.2c-0.6,0.6-1.4,0.9-2.2,0.9c-0.8,0-1.6-0.3-2.2-0.9s-0.9-1.4-0.9-2.2
	c0-0.8,0.3-1.6,0.9-2.2c0.6-0.6,1.4-0.9,2.2-0.9c0.8,0,1.6,0.3,2.2,0.9C387.6,155,387.9,155.8,387.9,156.7z"/>
<path class="st26" d="M377,156.7c0,0.8-0.3,1.6-0.9,2.2c-0.6,0.6-1.4,0.9-2.2,0.9h-49.2c-0.8,0-1.6-0.3-2.2-0.9
	c-0.6-0.6-0.9-1.4-0.9-2.2c0-0.8,0.3-1.6,0.9-2.2c0.6-0.6,1.4-0.9,2.2-0.9h49.2c0.8,0,1.6,0.3,2.2,0.9
	C376.7,155,377,155.8,377,156.7z"/>
<path class="st26" d="M362.8,178.5h-16.7c-3.1,0-5.6,2.5-5.6,5.6c0,3.1,2.5,5.6,5.6,5.6h16.7c3.1,0,5.6-2.5,5.6-5.6
	C368.4,180.9,365.9,178.5,362.8,178.5z"/>
<template  id="transover-popup-template" xmlns="">
	<style>.pos_translation {
      padding-bottom: 3px;
    }

    strong {
      font-weight: bold;
    }

    .rtl {
      direction: rtl;
    }

    main {
      color: #333;
      max-width: 800px;
      font-family: Arial, sans-serif;
      font-size: 14px;
      font-weight: 300;
      letter-spacing: initial;

      background: #fcf7d9;
      text-align: left;
      border-style: solid;
      border-width: 1px;
      border-color: #ccc;
      box-shadow: rgba(0,0,0,0.2) 0px 2px 5px;
      border-radius: 5px;
      padding: 6px 8px 3px 8px;
      position: fixed;
      z-index: 2147483647;
      top: -1500px;
      left: 0;
      box-sizing: content-box;
      -webkit-font-smoothing: antialiased;
      font-smoothing: antialiased;
      text-rendering: optimizeLegibility;

      /* To fix the following issue:
      1. Have translate on hover enabled (opposed to translate on click).
      2. Wisit a website that has a dropdown menu that opens on hover.
      3. Open the menu.
      4. Hover over a word within that menu.
      5. Incidentally move the cursor over the TransOver popup.
      The hover menu gets closed.
      */
      pointer-events: none;
    }

    .pos_translation {
      font-size: 1em;
      line-height: 1.3em;
    }

    .red {
      color: red;
    }

    .from_lang {
      color: grey;
      font-size: 0.8em;
      line-height: 1.2em;
      margin-top: 2px;
      margin-bottom: 3px;
    }
		</style>
	<main  translate="no"></main>
</template>
</svg>
