<?xml version="1.0" encoding="utf-8"?>
<!-- Generator: Adobe Illustrator 24.2.3, SVG Export Plug-In . SVG Version: 6.00 Build 0)  -->
<svg version="1.1" id="Layer_1" xmlns="http://www.w3.org/2000/svg" xmlns:xlink="http://www.w3.org/1999/xlink" x="0px" y="0px"
	 viewBox="0 0 24 24" style="enable-background:new 0 0 24 24;" xml:space="preserve">
<style type="text/css">
	.st0{fill-rule:evenodd;clip-rule:evenodd;fill:#50C800;}
	.st1{fill-rule:evenodd;clip-rule:evenodd;fill:#8EE000;}
	.st2{fill-rule:evenodd;clip-rule:evenodd;fill:#FFFFFF;}
	.st3{fill-rule:evenodd;clip-rule:evenodd;fill:#4B4B4B;}
	.st4{fill-rule:evenodd;clip-rule:evenodd;fill:#F48000;}
	.st5{fill:#FFC200;}
	.st6{fill-rule:evenodd;clip-rule:evenodd;fill:#FFE747;}
	.st7{fill:#FFFFFF;}
</style>
<path class="st0" d="M4.6,0h14.9C22,0,24,2.1,24,4.6v14.9c0,2.5-2,4.6-4.6,4.6H4.6C2,24,0,22,0,19.5V4.6C0,2.1,2,0,4.6,0z"/>
<path class="st1" d="M24,15.5v-7c-0.3-0.7-0.7-1.3-1.2-1.8c0-0.7-0.1-1.5-0.5-2.2c-0.3-0.4-0.9-0.5-1.2-0.1l-0.8,0.9c0,0,0,0,0,0
	c0.1-0.8,0-1.6-0.4-2.3c-0.2-0.5-0.8-0.5-1.1-0.2l-3.7,3.8c0,0-0.1,0.1-0.1,0.1c0,0,0,0,0,0C13.3,8.3,10.8,8.3,9.2,7
	C9.1,6.9,9,6.8,8.9,6.7L5.2,2.9C4.8,2.5,4.3,2.6,4.1,3.1C3.7,3.8,3.6,4.6,3.7,5.4c0,0,0,0,0,0L2.9,4.5c-0.3-0.4-1-0.3-1.2,0.1
	C1.3,5.3,1.1,6,1.2,6.8C0.7,7.3,0.3,7.8,0,8.5v7.2c0.8,1.9,2.8,3.3,5,3.3h0.2c2.2,0,4.1-1.3,5-3.2c0.8,0,1.4,0,1.8,0
	c0.8,0,1.4,0,1.9,0c0.8,1.9,2.8,3.2,5,3.2H19C21.3,18.9,23.2,17.5,24,15.5z"/>
<path class="st2" d="M5.3,7.2c2.1,0,3.8,1.7,3.8,3.8v2.2c0,2.1-1.7,3.8-3.8,3.8c-2.1,0-3.8-1.7-3.8-3.8v-2.2
	C1.5,8.8,3.2,7.2,5.3,7.2z M18.6,7.2c2.1,0,3.8,1.7,3.8,3.8v2.2c0,2.1-1.7,3.8-3.8,3.8c-2.1,0-3.8-1.7-3.8-3.8v-2.2
	C14.8,8.8,16.5,7.2,18.6,7.2z"/>
<path class="st3" d="M5.9,9.3c1,0,1.8,0.8,1.8,1.8v1.9c0,1-0.8,1.8-1.8,1.8c-1,0-1.8-0.8-1.8-1.8v-1.9C4.1,10.1,4.9,9.3,5.9,9.3z"/>
<path class="st4" d="M12,13.7c1.1,0,2.1,0.9,2.1,2.1v0.7c0,1.1-0.9,2.1-2.1,2.1c-1.1,0-2.1-0.9-2.1-2.1v-0.7
	C9.9,14.6,10.9,13.7,12,13.7z"/>
<path class="st5" d="M9.2,16c0.2-1.3,1.5-2.3,2.9-2.3c1.3,0,2.5,1,2.8,2.3v0.1c0,0.1,0,0.1-0.1,0.1l-2.7,0.5h-0.2l-2.7-0.5
	c-0.1,0-0.1,0-0.1-0.1V16z"/>
<path class="st6" d="M11.6,14.1c0.1,0,0.3-0.1,0.4-0.1c0.2,0,0.3,0,0.5,0.1c0.2,0,0.3,0.1,0.4,0.2c0.1,0.1,0.1,0.3,0.1,0.4
	c0,0.1,0,0.1,0,0.2c0,0.1-0.1,0.1-0.1,0.2c0,0-0.1,0.1-0.2,0.1c-0.1,0-0.1,0-0.2,0h-1c-0.1,0-0.1,0-0.2,0c-0.1,0-0.1-0.1-0.2-0.1
	c0,0-0.1-0.1-0.1-0.2c0-0.1,0-0.1,0-0.2C11,14.5,11.2,14.2,11.6,14.1z"/>
<path class="st3" d="M18.1,9.3c1,0,1.8,0.8,1.8,1.8v1.9c0,1-0.8,1.8-1.8,1.8c-1,0-1.8-0.8-1.8-1.8v-1.9C16.3,10.1,17.1,9.3,18.1,9.3
	z"/>
<path class="st7" d="M4.4,11.5c0.6,0,1.2-0.5,1.2-1.2c0-0.6-0.5-1.2-1.2-1.2c-0.6,0-1.2,0.5-1.2,1.2C3.2,11,3.7,11.5,4.4,11.5z
	 M16.4,11.5c0.6,0,1.2-0.5,1.2-1.2c0-0.6-0.5-1.2-1.2-1.2c-0.6,0-1.2,0.5-1.2,1.2C15.2,11,15.7,11.5,16.4,11.5z"/>
<template  id="transover-popup-template" xmlns="">
	<style>.pos_translation {
      padding-bottom: 3px;
    }

    strong {
      font-weight: bold;
    }

    .rtl {
      direction: rtl;
    }

    main {
      color: #333;
      max-width: 800px;
      font-family: Arial, sans-serif;
      font-size: 14px;
      font-weight: 300;
      letter-spacing: initial;

      background: #fcf7d9;
      text-align: left;
      border-style: solid;
      border-width: 1px;
      border-color: #ccc;
      box-shadow: rgba(0,0,0,0.2) 0px 2px 5px;
      border-radius: 5px;
      padding: 6px 8px 3px 8px;
      position: fixed;
      z-index: 2147483647;
      top: -1500px;
      left: 0;
      box-sizing: content-box;
      -webkit-font-smoothing: antialiased;
      font-smoothing: antialiased;
      text-rendering: optimizeLegibility;

      /* To fix the following issue:
      1. Have translate on hover enabled (opposed to translate on click).
      2. Wisit a website that has a dropdown menu that opens on hover.
      3. Open the menu.
      4. Hover over a word within that menu.
      5. Incidentally move the cursor over the TransOver popup.
      The hover menu gets closed.
      */
      pointer-events: none;
    }

    .pos_translation {
      font-size: 1em;
      line-height: 1.3em;
    }

    .red {
      color: red;
    }

    .from_lang {
      color: grey;
      font-size: 0.8em;
      line-height: 1.2em;
      margin-top: 2px;
      margin-bottom: 3px;
    }
		</style>
	<main  translate="no"></main>
</template>
</svg>
