<svg id="Layer_1" data-name="Layer 1" xmlns="http://www.w3.org/2000/svg" viewBox="0 0 147.08 35.77"><defs><style>.cls-1{fill:#007bff;}.cls-2{font-size:32.91px;fill:#1e1e1e;font-family:MyriadPro-Regular, Myriad Pro;}.cls-3{letter-spacing:0em;}.cls-4{letter-spacing:0.02em;}.cls-5{letter-spacing:0em;}</style></defs><path class="cls-1" d="M24.62,2a31.79,31.79,0,0,1,3.47,14.51A31.81,31.81,0,0,1,24.62,31a16.5,16.5,0,0,0,0-29ZM17.2,1.68A3.35,3.35,0,0,0,13.91.27a16.5,16.5,0,0,0,0,32.51,3.35,3.35,0,0,0,3.29-1.4,25.68,25.68,0,0,0,4.71-14.85A25.6,25.6,0,0,0,17.2,1.68Z" transform="translate(-0.25 0.91)"/><text class="cls-2" transform="translate(34.1 27.55)">Ea<tspan class="cls-3" x="32.06" y="0">r</tspan><tspan x="42.95" y="0">n</tspan><tspan class="cls-4" x="61.21" y="0">I</tspan><tspan class="cls-5" x="69.61" y="0">t</tspan><tspan x="80.4" y="0">.io</tspan></text></svg>