<?xml version="1.0" encoding="utf-8"?>
<!-- Generator: Adobe Illustrator 24.2.3, SVG Export Plug-In . SVG Version: 6.00 Build 0)  -->
<svg version="1.1" id="Layer_1" xmlns="http://www.w3.org/2000/svg" xmlns:xlink="http://www.w3.org/1999/xlink" x="0px" y="0px"
	 viewBox="0 0 147.1 35.8" style="enable-background:new 0 0 147.1 35.8;" xml:space="preserve">
<style type="text/css">
	.st0{fill:#1F4B3F;}
	.st1{fill:#1E1E1E;}
	.st2{font-family:'Inter-Regular';}
	.st3{font-size:31.3631px;}
</style>
<path class="st0" d="M24.4,2.9c2.3,4.5,3.5,9.5,3.5,14.5s-1.2,10-3.5,14.5c8-4.3,11-14.4,6.6-22.4C29.5,6.7,27.2,4.4,24.4,2.9z
	 M17,2.6c-0.7-1.1-2-1.6-3.3-1.4c-9,1.6-15,10.1-13.4,19.1c1.2,6.9,6.6,12.2,13.4,13.4c1.3,0.2,2.6-0.3,3.3-1.4
	c3.1-4.3,4.7-9.5,4.7-14.9C21.7,12.1,20,6.9,17,2.6z"/>
<text transform="matrix(1 0 0 1 35.5846 28.9355)" class="st1 st2 st3">Ea</text>
<text transform="matrix(1 0 0 1 65.3956 28.9355)" class="st1 st2 st3">r</text>
<text transform="matrix(1 0 0 1 76.5158 28.9355)" class="st1 st2 st3">n</text>
<text transform="matrix(1 0 0 1 93.9172 28.9355)" class="st1 st2 st3">I</text>
<text transform="matrix(1 0 0 1 101.923 28.9355)" class="st1 st2 st3">t</text>
<text transform="matrix(1 0 0 1 112.2052 28.9355)" class="st1 st2 st3">.io</text>
</svg>
